<?xml version="1.0" encoding="UTF-8"?>
<!DOCTYPE svg PUBLIC "-//W3C//DTD SVG 1.1//EN" "http://www.w3.org/Graphics/SVG/1.1/DTD/svg11.dtd">
<svg xmlns="http://www.w3.org/2000/svg" version="1.1" width="206px" height="213px" style="shape-rendering:geometricPrecision; text-rendering:geometricPrecision; image-rendering:optimizeQuality; fill-rule:evenodd; clip-rule:evenodd" xmlns:xlink="http://www.w3.org/1999/xlink">
<g><path style="opacity:0.981" fill="#3fcfed" d="M 67.5,-0.5 C 75.5,-0.5 83.5,-0.5 91.5,-0.5C 110.672,0.349326 130.006,1.18266 149.5,2C 151.96,3.4578 154.127,5.29113 156,7.5C 158.754,31.4311 159.587,55.4311 158.5,79.5C 157.751,98.252 148.085,106.585 129.5,104.5C 126.5,104.5 123.5,104.5 120.5,104.5C 95.5,104.5 70.5,104.5 45.5,104.5C 45.5,109.167 45.5,113.833 45.5,118.5C 42.9248,119.568 40.7581,121.235 39,123.5C 36.7098,126.58 34.5431,129.747 32.5,133C 28.6049,134.266 24.6049,134.766 20.5,134.5C 20.5,124.833 20.5,115.167 20.5,105.5C 12.9015,106.027 6.73482,103.36 2,97.5C 1.07054,91.0342 0.237203,84.7009 -0.5,78.5C -0.5,61.1667 -0.5,43.8333 -0.5,26.5C 0.237203,20.2991 1.07054,13.9658 2,7.5C 3.87337,5.29113 6.04003,3.4578 8.5,2C 28.3274,1.17377 47.9941,0.340438 67.5,-0.5 Z"/></g>
<g><path style="opacity:1" fill="#f6fcfd" d="M 12.5,8.5 C 20.8333,8.5 29.1667,8.5 37.5,8.5C 37.5,12.8333 37.5,17.1667 37.5,21.5C 31.8333,21.5 26.1667,21.5 20.5,21.5C 20.6641,29.5415 20.1641,37.5415 19,45.5C 17.9735,49.5075 15.6402,50.8408 12,49.5C 7.20494,35.7504 7.37161,22.0837 12.5,8.5 Z"/></g>
<g><path style="opacity:1" fill="#048fae" d="M 65.5,16.5 C 94.8701,13.6976 107.037,26.6976 102,55.5C 99.449,60.7776 96.2823,65.6109 92.5,70C 95.1841,75.883 96.5175,82.0496 96.5,88.5C 89.5314,85.3778 83.8648,80.5445 79.5,74C 57.5378,71.0317 48.0378,58.5317 51,36.5C 51.8993,32.462 53.566,28.7954 56,25.5C 59.0623,22.2678 62.229,19.2678 65.5,16.5 Z"/></g>
<g><path style="opacity:1" fill="#31c9e7" d="M 69.5,25.5 C 89.7829,26.3816 96.2829,36.3816 89,55.5C 76.0256,65.8619 67.3589,63.1953 63,47.5C 61.7615,39.1136 63.9281,31.7803 69.5,25.5 Z"/></g>
<g><path style="opacity:0.984" fill="#9b35c0" d="M 205.5,99.5 C 205.5,102.167 205.5,104.833 205.5,107.5C 204.833,107.5 204.5,107.833 204.5,108.5C 195.052,109.134 188.552,113.801 185,122.5C 183.663,136.129 183.163,149.796 183.5,163.5C 173.24,164.102 163.24,163.436 153.5,161.5C 146.327,142.154 138.327,123.154 129.5,104.5C 148.085,106.585 157.751,98.252 158.5,79.5C 171.062,78.5927 183.562,79.2594 196,81.5C 201.038,86.5793 204.205,92.5793 205.5,99.5 Z"/></g>
<g><path style="opacity:0.987" fill="#9c34c0" d="M 120.5,104.5 C 111.635,121.563 103.302,138.897 95.5,156.5C 96.8029,158.968 98.3029,161.301 100,163.5C 110.23,151.702 122.73,148.369 137.5,153.5C 139.604,157.941 142.937,160.941 147.5,162.5C 147.611,163.117 147.944,163.617 148.5,164C 141.802,169.231 138.135,176.065 137.5,184.5C 109.45,185.017 81.4503,184.183 53.5,182C 50.5379,179.713 48.3712,176.88 47,173.5C 45.1667,155.177 44.6667,136.844 45.5,118.5C 45.5,113.833 45.5,109.167 45.5,104.5C 70.5,104.5 95.5,104.5 120.5,104.5 Z"/></g>
<g><path style="opacity:1" fill="#f495ae" d="M 120.5,104.5 C 123.5,104.5 126.5,104.5 129.5,104.5C 138.327,123.154 146.327,142.154 153.5,161.5C 151.735,162.461 149.735,162.795 147.5,162.5C 142.937,160.941 139.604,157.941 137.5,153.5C 122.73,148.369 110.23,151.702 100,163.5C 98.3029,161.301 96.8029,158.968 95.5,156.5C 103.302,138.897 111.635,121.563 120.5,104.5 Z"/></g>
<g><path style="opacity:0.973" fill="#882da9" d="M 204.5,108.5 C 204.667,125.17 204.5,141.837 204,158.5C 203.74,164.551 203.073,170.551 202,176.5C 197.487,182.735 191.32,185.401 183.5,184.5C 183.5,192.833 183.5,201.167 183.5,209.5C 175.145,209.239 168.312,205.906 163,199.5C 160.831,195.649 158.664,191.815 156.5,188C 150.554,184.918 144.221,183.751 137.5,184.5C 138.135,176.065 141.802,169.231 148.5,164C 147.944,163.617 147.611,163.117 147.5,162.5C 149.735,162.795 151.735,162.461 153.5,161.5C 163.24,163.436 173.24,164.102 183.5,163.5C 183.163,149.796 183.663,136.129 185,122.5C 188.552,113.801 195.052,109.134 204.5,108.5 Z"/></g>
<g><path style="opacity:1" fill="#bb56ba" d="M 120.5,125.5 C 123.472,127.322 126.472,129.156 129.5,131C 133.832,134.907 133.499,138.24 128.5,141C 124.49,141.501 120.49,142.001 116.5,142.5C 115.812,136.322 117.145,130.655 120.5,125.5 Z"/></g>
</svg>
