<?xml version="1.0" encoding="UTF-8"?>
<!DOCTYPE svg PUBLIC "-//W3C//DTD SVG 1.1//EN" "http://www.w3.org/Graphics/SVG/1.1/DTD/svg11.dtd">
<svg xmlns="http://www.w3.org/2000/svg" version="1.1" width="210px" height="164px" style="shape-rendering:geometricPrecision; text-rendering:geometricPrecision; image-rendering:optimizeQuality; fill-rule:evenodd; clip-rule:evenodd" xmlns:xlink="http://www.w3.org/1999/xlink">
<g><path style="opacity:0.97" fill="#73def2" d="M 47.5,-0.5 C 67.8333,-0.5 88.1667,-0.5 108.5,-0.5C 107.782,7.43868 104.115,13.6054 97.5,18C 88.934,19.8379 80.2674,20.8379 71.5,21C 54.8367,21.4999 38.17,21.6666 21.5,21.5C 29.6499,20.5073 37.9832,20.1739 46.5,20.5C 46.5,16.5 46.5,12.5 46.5,8.5C 15.5768,2.75642 2.91016,15.4231 8.5,46.5C 12.8333,46.5 17.1667,46.5 21.5,46.5C 22.007,65.9027 21.1736,85.236 19,104.5C 14.547,111.116 8.38033,115.116 0.5,116.5C 0.794717,114.265 0.461384,112.265 -0.5,110.5C -0.5,97.1667 -0.5,83.8333 -0.5,70.5C 0.125003,50.9381 1.29167,31.2714 3,11.5C 6.16667,8.33333 9.33333,5.16667 12.5,2C 24.3239,1.17867 35.9906,0.345339 47.5,-0.5 Z"/></g>
<g><path style="opacity:0.997" fill="#3dcdeb" d="M 108.5,-0.5 C 127.5,-0.5 146.5,-0.5 165.5,-0.5C 176.01,0.346469 186.677,1.1798 197.5,2C 200.667,5.16667 203.833,8.33333 207,11.5C 207.918,15.2797 208.751,18.9464 209.5,22.5C 209.5,31.8333 209.5,41.1667 209.5,50.5C 200.977,50.1871 194.81,53.8537 191,61.5C 189.186,86.8208 187.519,112.154 186,137.5C 175.166,144.445 163.333,148.612 150.5,150C 146.439,153.623 144.105,158.123 143.5,163.5C 99.1667,163.5 54.8333,163.5 10.5,163.5C 7.50196,160.333 4.66863,157 2,153.5C 1.18769,146.681 0.354361,140.015 -0.5,133.5C -0.5,128.5 -0.5,123.5 -0.5,118.5C 0.338246,118.158 0.67158,117.492 0.5,116.5C 8.38033,115.116 14.547,111.116 19,104.5C 21.1736,85.236 22.007,65.9027 21.5,46.5C 21.5,38.1667 21.5,29.8333 21.5,21.5C 38.17,21.6666 54.8367,21.4999 71.5,21C 80.2674,20.8379 88.934,19.8379 97.5,18C 104.115,13.6054 107.782,7.43868 108.5,-0.5 Z"/></g>
<g><path style="opacity:1" fill="#f5fcfd" d="M 21.5,21.5 C 21.5,29.8333 21.5,38.1667 21.5,46.5C 17.1667,46.5 12.8333,46.5 8.5,46.5C 2.91016,15.4231 15.5768,2.75642 46.5,8.5C 46.5,12.5 46.5,16.5 46.5,20.5C 37.9832,20.1739 29.6499,20.5073 21.5,21.5 Z"/></g>
<g><path style="opacity:1" fill="#fbcc2d" d="M 138.5,87.5 C 134.534,92.3923 132.534,98.059 132.5,104.5C 125.44,106.199 119.107,109.199 113.5,113.5C 107.833,117.5 102.167,117.5 96.5,113.5C 95.657,111.827 94.3237,110.66 92.5,110C 88.2845,108.316 83.9512,107.149 79.5,106.5C 78.7747,98.1062 74.7747,91.7729 67.5,87.5C 69.1481,76.3884 72.3148,65.7218 77,55.5C 86.3382,51.2473 95.5049,46.5806 104.5,41.5C 113.501,46.251 122.667,50.5843 132,54.5C 133.299,63.7632 136.799,72.0966 142.5,79.5C 141.153,82.1932 139.82,84.8599 138.5,87.5 Z"/></g>
<g><path style="opacity:0.975" fill="#2fb1cb" d="M 209.5,50.5 C 209.5,76.1667 209.5,101.833 209.5,127.5C 208.778,136.692 207.945,146.026 207,155.5C 204.295,158.036 201.795,160.703 199.5,163.5C 180.833,163.5 162.167,163.5 143.5,163.5C 144.105,158.123 146.439,153.623 150.5,150C 163.333,148.612 175.166,144.445 186,137.5C 187.519,112.154 189.186,86.8208 191,61.5C 194.81,53.8537 200.977,50.1871 209.5,50.5 Z"/></g>
<g><path style="opacity:1" fill="#f44854" d="M 67.5,87.5 C 74.7747,91.7729 78.7747,98.1062 79.5,106.5C 83.9512,107.149 88.2845,108.316 92.5,110C 94.3237,110.66 95.657,111.827 96.5,113.5C 86.9251,120.735 77.9251,128.735 69.5,137.5C 64.5639,133.368 62.5639,128.035 63.5,121.5C 55.7013,122.435 50.0347,119.435 46.5,112.5C 53.7561,104.281 60.7561,95.9476 67.5,87.5 Z"/></g>
<g><path style="opacity:1" fill="#f44854" d="M 138.5,87.5 C 147.971,94.8048 156.304,103.305 163.5,113C 159.76,119.531 154.093,122.365 146.5,121.5C 147.278,127.932 145.278,133.266 140.5,137.5C 132.075,128.735 123.075,120.735 113.5,113.5C 119.107,109.199 125.44,106.199 132.5,104.5C 132.534,98.059 134.534,92.3923 138.5,87.5 Z"/></g>
</svg>
