<?xml version="1.0" encoding="UTF-8"?>
<svg version="1.1" xmlns="http://www.w3.org/2000/svg" width="50" height="50">
<path d="M0 0 C2.31 0 4.62 0 7 0 C9.31 4.62 11.62 9.24 14 14 C15.32 14 16.64 14 18 14 C17.58427734 12.98679687 17.58427734 12.98679687 17.16015625 11.953125 C16.79792969 11.06109375 16.43570312 10.1690625 16.0625 9.25 C15.70285156 8.36828125 15.34320313 7.4865625 14.97265625 6.578125 C14.14643424 4.38813896 13.50630057 2.28101729 13 0 C15.31 0 17.62 0 20 0 C20.33 1.32 20.66 2.64 21 4 C21.66 4 22.32 4 23 4 C23.33 2.68 23.66 1.36 24 0 C26.31 0 28.62 0 31 0 C29.50829734 4.9723422 27.39542583 9.41845739 25 14 C27.475 14.495 27.475 14.495 30 15 C30.226875 14.195625 30.45375 13.39125 30.6875 12.5625 C32.33631588 8.08714261 34.60544412 4.11278682 37 0 C39.31 0 41.62 0 44 0 C43.28275488 5.39493066 40.75996159 9.80504524 38.26367188 14.56054688 C37.15081219 16.72220066 37.15081219 16.72220066 36 20 C36.69733086 22.13947135 36.69733086 22.13947135 38 24 C38.66071926 29.51623758 38.73198334 34.4234205 36.375 39.5 C31.80134327 44.3143755 28.6912538 46.25156236 22 46.5 C15.3087462 46.25156236 12.19865673 44.3143755 7.625 39.5 C5.25465057 34.39463201 5.37924229 29.5435107 6 24 C6.41765625 23.05640625 6.8353125 22.1128125 7.265625 21.140625 C8.35874264 16.46580274 6.41195527 13.79102775 4.125 9.75 C0 2.15346535 0 2.15346535 0 0 Z M18 17 C19 19 19 19 19 19 Z M21 17 C21 17.99 21 18.98 21 20 C19.35 20 17.7 20 16 20 C16 20.66 16 21.32 16 22 C15.34 22 14.68 22 14 22 C14 22.66 14 23.32 14 24 C12.35 24.66 10.7 25.32 9 26 C9.99 26.33 10.98 26.66 12 27 C12 27.66 12 28.32 12 29 C11.01 29.33 10.02 29.66 9 30 C9.99 30 10.98 30 12 30 C12 30.66 12 31.32 12 32 C11.01 32.33 10.02 32.66 9 33 C9.99 33 10.98 33 12 33 C12.2475 33.598125 12.495 34.19625 12.75 34.8125 C14.18072525 37.31626919 15.5691582 38.48072388 18 40 C18.66 40 19.32 40 20 40 C20.33 40.99 20.66 41.98 21 43 C21 42.34 21 41.68 21 41 C21.66 41 22.32 41 23 41 C23.33 41.66 23.66 42.32 24 43 C24 42.01 24 41.02 24 40 C24.66 40 25.32 40 26 40 C26.33 40.66 26.66 41.32 27 42 C27 41.01 27 40.02 27 39 C27.66 39 28.32 39 29 39 C29 38.34 29 37.68 29 37 C29.66 37 30.32 37 31 37 C31 36.34 31 35.68 31 35 C31.66 34.67 32.32 34.34 33 34 C32.67 33.34 32.34 32.68 32 32 C32.66 31.67 33.32 31.34 34 31 C33.67 29.35 33.34 27.7 33 26 C32.34 26 31.68 26 31 26 C30.67 24.35 30.34 22.7 30 21 C27.525 20.505 27.525 20.505 25 20 C24.67 19.01 24.34 18.02 24 17 C24 17.99 24 18.98 24 20 C23.34 20 22.68 20 22 20 C21.67 19.01 21.34 18.02 21 17 Z M15 18 C16 20 16 20 16 20 Z M27 18 C27.33 18.66 27.66 19.32 28 20 C28.33 19.34 28.66 18.68 29 18 C28.34 18 27.68 18 27 18 Z M34 28 C35 30 35 30 35 30 Z M29 39 C30 41 30 41 30 41 Z M17 41 C18 43 18 43 18 43 Z " fill="#EDEDED" transform="translate(3,2)"/>
<path d="M0 0 C2.9375 0.4375 2.9375 0.4375 4.9375 2.4375 C4.98004356 4.43704746 4.97830783 6.43791636 4.9375 8.4375 C5.2675 9.4275 5.5975 10.4175 5.9375 11.4375 C5.3125 13.5625 5.3125 13.5625 3.9375 15.4375 C1.12488255 16.47372748 -0.44107874 16.62737872 -3.3125 15.75 C-5.0625 14.4375 -5.0625 14.4375 -5.8125 12.3125 C-5.895 11.69375 -5.9775 11.075 -6.0625 10.4375 C-3.7525 10.7675 -1.4425 11.0975 0.9375 11.4375 C-0.0525 10.7775 -1.0425 10.1175 -2.0625 9.4375 C-2.0625 8.4475 -2.0625 7.4575 -2.0625 6.4375 C-3.3825 6.1075 -4.7025 5.7775 -6.0625 5.4375 C-3.86402672 0.55200382 -3.86402672 0.55200382 0 0 Z M-2.0625 4.4375 C-2.0625 5.0975 -2.0625 5.7575 -2.0625 6.4375 C-1.0725 6.4375 -0.0825 6.4375 0.9375 6.4375 C0.9375 5.7775 0.9375 5.1175 0.9375 4.4375 C-0.0525 4.4375 -1.0425 4.4375 -2.0625 4.4375 Z " fill="#EEEEEE" transform="translate(25.0625,23.5625)"/>
</svg>
