<svg xmlns="http://www.w3.org/2000/svg" xmlns:xlink="http://www.w3.org/1999/xlink" viewBox="0,0,256,256" width="60px" height="60px"><g fill="none" fill-rule="nonzero" stroke="none" stroke-width="1" stroke-linecap="butt" stroke-linejoin="miter" stroke-miterlimit="10" stroke-dasharray="" stroke-dashoffset="0" font-family="none" font-weight="none" font-size="none" text-anchor="none" style="mix-blend-mode: normal"><g transform="scale(2.13333,2.13333)"><path d="M72,105l-12,11l-12,-11v-41h24v15.067l-5,2.933v3l5,3v3l-5,3v3l5,3z" fill="#000000" opacity="0.35"></path><path d="M72,101l-12,11l-12,-11v-41h24v15.067l-5,2.933v3l5,3v3l-5,3v3l5,3z" fill="#ff9201"></path><path d="M58,110.167l-4,-3.667v-41.5h4z" fill="#ffaa39"></path><path d="M60,11c-16.569,0 -30,13.431 -30,30c0,16.569 13.431,30 30,30c16.569,0 30,-13.431 30,-30c0,-16.569 -13.431,-30 -30,-30zM60,33c-4.418,0 -8,-3.582 -8,-8c0,-4.418 3.582,-8 8,-8c4.418,0 8,3.582 8,8c0,4.418 -3.582,8 -8,8z" fill="#000000" opacity="0.35"></path><path d="M60,7c-16.569,0 -30,13.431 -30,30c0,16.569 13.431,30 30,30c16.569,0 30,-13.431 30,-30c0,-16.569 -13.431,-30 -30,-30zM60,29c-4.418,0 -8,-3.582 -8,-8c0,-4.418 3.582,-8 8,-8c4.418,0 8,3.582 8,8c0,4.418 -3.582,8 -8,8z" fill="#ff9201"></path></g></g></svg>