<?xml version="1.0" encoding="UTF-8"?>
<!DOCTYPE svg PUBLIC "-//W3C//DTD SVG 1.1//EN" "http://www.w3.org/Graphics/SVG/1.1/DTD/svg11.dtd">
<svg xmlns="http://www.w3.org/2000/svg" version="1.1" width="190px" height="194px" style="shape-rendering:geometricPrecision; text-rendering:geometricPrecision; image-rendering:optimizeQuality; fill-rule:evenodd; clip-rule:evenodd" xmlns:xlink="http://www.w3.org/1999/xlink">
<g><path style="opacity:0.925" fill="#50d4ee" d="M 34.5,-0.5 C 41.8333,-0.5 49.1667,-0.5 56.5,-0.5C 79.0025,0.410877 101.669,1.24421 124.5,2C 162.995,15.8585 184.662,43.0252 189.5,83.5C 189.5,87.5 189.5,91.5 189.5,95.5C 179.23,96.3054 170.563,100.305 163.5,107.5C 163.463,47.6227 133.796,21.1227 74.5,28C 76.4782,30.4973 76.9782,33.3307 76,36.5C 75.5,38.3333 74.3333,39.5 72.5,40C 60.694,41.63 49.0274,43.63 37.5,46C 32.2948,41.7558 29.6282,36.2558 29.5,29.5C 30.7999,19.393 32.4666,9.393 34.5,-0.5 Z"/></g>
<g><path style="opacity:0.756" fill="#0088ac" d="M 84.5,28.5 C 90.1667,28.5 95.8333,28.5 101.5,28.5C 101.5,34.5 101.5,40.5 101.5,46.5C 95.8333,46.5 90.1667,46.5 84.5,46.5C 84.5,40.5 84.5,34.5 84.5,28.5 Z"/></g>
<g><path style="opacity:0.777" fill="#9e32c2" d="M 101.5,87.5 C 96.0589,84.727 90.3923,83.0603 84.5,82.5C 87.9499,66.05 97.9499,56.3833 114.5,53.5C 115.252,66.9279 110.919,78.2613 101.5,87.5 Z"/></g>
<g><path style="opacity:0.877" fill="#f99e15" d="M 84.5,82.5 C 90.3923,83.0603 96.0589,84.727 101.5,87.5C 101.5,91.5 101.5,95.5 101.5,99.5C 98.0183,106.41 92.3516,109.41 84.5,108.5C 82.321,108.16 80.4877,107.16 79,105.5C 73.7729,96.0768 75.6062,88.4102 84.5,82.5 Z"/></g>
<g><path style="opacity:0.899" fill="#34c8e5" d="M 163.5,107.5 C 170.563,100.305 179.23,96.3054 189.5,95.5C 189.5,98.5 189.5,101.5 189.5,104.5C 182.85,161.14 150.85,190.473 93.5,192.5C 69.7458,191.969 48.0791,185.136 28.5,172C 9.41041,154.322 -0.256261,132.489 -0.5,106.5C -0.5,103.5 -0.5,100.5 -0.5,97.5C 0.484888,93.3656 0.818222,89.0323 0.5,84.5C 6.02383,82.6695 11.1905,83.3362 16,86.5C 24.9128,153.09 61.7461,177.59 126.5,160C 146.47,147.866 158.803,130.366 163.5,107.5 Z"/></g>
<g><path style="opacity:0.756" fill="#0088ac" d="M 25.5,87.5 C 31.5,87.5 37.5,87.5 43.5,87.5C 43.5,93.1667 43.5,98.8333 43.5,104.5C 37.5,104.5 31.5,104.5 25.5,104.5C 25.5,98.8333 25.5,93.1667 25.5,87.5 Z"/></g>
<g><path style="opacity:0.756" fill="#0088ac" d="M 142.5,87.5 C 148.5,87.5 154.5,87.5 160.5,87.5C 160.5,93.1667 160.5,98.8333 160.5,104.5C 154.5,104.5 148.5,104.5 142.5,104.5C 142.5,98.8333 142.5,93.1667 142.5,87.5 Z"/></g>
<g><path style="opacity:0.871" fill="#a02cd0" d="M 101.5,99.5 C 117.661,107.491 125.828,120.491 126,138.5C 107.224,135.208 93.3907,125.208 84.5,108.5C 92.3516,109.41 98.0183,106.41 101.5,99.5 Z"/></g>
<g><path style="opacity:0.756" fill="#0088ac" d="M 84.5,145.5 C 90.1667,145.5 95.8333,145.5 101.5,145.5C 101.5,151.5 101.5,157.5 101.5,163.5C 95.8333,163.5 90.1667,163.5 84.5,163.5C 84.5,157.5 84.5,151.5 84.5,145.5 Z"/></g>
</svg>
